<svg xmlns="http://www.w3.org/2000/svg" width="520" height="650" viewBox="0 0 520 650"><rect width="100%" height="100%" fill="#3A3A3A"/><path fill="#F5EDD8" d="M145.19 308.975h4.74l-10.1 32.53h-5.47l-7.11-22.23q-.29-.81-.54-1.98-.13.56-.27 1.06-.13.49-.29.92l-7.18 22.23h-5.49l-10.08-32.53h5.07q.78 0 1.31.37t.71 1l5.54 19.46q.18.72.34 1.56.17.85.35 1.77.18-.94.4-1.78.21-.83.46-1.55l6.39-19.46q.18-.52.71-.95.53-.42 1.29-.42h1.78q.79 0 1.28.38.5.38.74.99l6.37 19.46q.47 1.4.86 3.22.29-1.78.65-3.22l5.53-19.46q.14-.56.69-.97.55-.4 1.32-.4m8.05 9.44h5.58v23.09h-5.58zm6.35-6.72q0 .72-.3 1.35-.29.63-.77 1.1-.49.47-1.14.75-.65.29-1.39.29-.72 0-1.36-.29-.65-.28-1.12-.75t-.75-1.1-.28-1.35q0-.74.28-1.4.28-.65.75-1.12t1.12-.76q.64-.28 1.36-.28.74 0 1.39.28.65.29 1.14.76.48.47.77 1.12.3.66.3 1.4m17.1 23.85v-3.9q-2.41.12-4.05.42-1.65.31-2.64.78t-1.41 1.1q-.43.63-.43 1.37 0 1.47.86 2.1.87.63 2.27.63 1.71 0 2.95-.62 1.25-.62 2.45-1.88m-11.75-12.13-.99-1.78q3.98-3.64 9.59-3.64 2.02 0 3.62.66 1.6.67 2.7 1.85t1.67 2.82q.58 1.64.58 3.6v14.58h-2.52q-.79 0-1.22-.24-.42-.23-.67-.95l-.5-1.67q-.87.79-1.71 1.39-.83.59-1.73 1-.9.4-1.92.62-1.03.21-2.26.21-1.47 0-2.7-.39-1.24-.4-2.14-1.18-.9-.79-1.4-1.96-.49-1.17-.49-2.72 0-.88.29-1.75.29-.86.96-1.65.66-.79 1.72-1.49 1.06-.69 2.6-1.21t3.59-.85q2.04-.32 4.68-.39v-1.35q0-2.32-.99-3.43-.99-1.12-2.86-1.12-1.35 0-2.24.32-.89.31-1.56.71-.68.39-1.23.71-.55.31-1.23.31-.58 0-.99-.3-.4-.3-.65-.71m30.08 18.45q-3.01 0-4.62-1.7t-1.61-4.69v-12.89h-2.36q-.45 0-.77-.29-.31-.3-.31-.88v-2.21l3.71-.6 1.17-6.3q.11-.45.43-.7.31-.25.81-.25h2.88v7.27h6.16v3.96h-6.16v12.51q0 1.08.53 1.69.53.6 1.45.6.52 0 .86-.12.35-.13.61-.26t.46-.26q.21-.12.41-.12.25 0 .4.12.16.13.34.37l1.67 2.7q-1.22 1.02-2.79 1.53-1.58.52-3.27.52m21.24-6.32v-3.9q-2.4.12-4.05.42-1.64.31-2.63.78t-1.42 1.1q-.42.63-.42 1.37 0 1.47.86 2.1.87.63 2.26.63 1.71 0 2.96-.62t2.44-1.88m-11.74-12.13-.99-1.78q3.98-3.64 9.58-3.64 2.03 0 3.63.66 1.59.67 2.7 1.85 1.1 1.18 1.67 2.82.58 1.64.58 3.6v14.58h-2.52q-.79 0-1.22-.24-.43-.23-.67-.95l-.5-1.67q-.88.79-1.71 1.39-.83.59-1.73 1-.9.4-1.93.62-1.02.21-2.26.21-1.46 0-2.7-.39-1.23-.4-2.13-1.18-.9-.79-1.4-1.96-.49-1.17-.49-2.72 0-.88.29-1.75.29-.86.95-1.65.67-.79 1.73-1.49 1.05-.69 2.59-1.21 1.55-.52 3.59-.85 2.05-.32 4.68-.39v-1.35q0-2.32-.99-3.43-.99-1.12-2.85-1.12-1.35 0-2.24.32-.89.31-1.57.71l-1.22.71q-.55.31-1.23.31-.58 0-.99-.3-.4-.3-.65-.71m38.14-3.98.38 1.82q.7-.7 1.47-1.29.78-.6 1.64-1.02.87-.41 1.86-.65t2.16-.24q1.89 0 3.35.65 1.47.64 2.44 1.8.98 1.16 1.49 2.76.51 1.61.51 3.55v14.69h-5.56v-14.69q0-2.12-.97-3.28t-2.95-1.16q-1.44 0-2.7.66-1.26.65-2.38 1.77v16.7h-5.56v-23.09h3.4q1.08 0 1.42 1.02m32.76 16.11v-3.9q-2.41.12-4.05.42-1.65.31-2.64.78t-1.41 1.1q-.43.63-.43 1.37 0 1.47.86 2.1.87.63 2.27.63 1.71 0 2.95-.62 1.25-.62 2.45-1.88m-11.75-12.13-.99-1.78q3.98-3.64 9.59-3.64 2.02 0 3.62.66 1.6.67 2.7 1.85t1.67 2.82q.58 1.64.58 3.6v14.58h-2.52q-.79 0-1.22-.24-.42-.23-.67-.95l-.5-1.67q-.87.79-1.71 1.39-.83.59-1.73 1-.9.4-1.92.62-1.03.21-2.26.21-1.47 0-2.7-.39-1.24-.4-2.14-1.18-.9-.79-1.4-1.96-.49-1.17-.49-2.72 0-.88.29-1.75.29-.86.96-1.65.66-.79 1.72-1.49 1.06-.69 2.6-1.21t3.59-.85q2.04-.32 4.68-.39v-1.35q0-2.32-.99-3.43-.99-1.12-2.86-1.12-1.35 0-2.24.32-.89.31-1.56.71-.68.39-1.23.71-.55.31-1.23.31-.58 0-.99-.3-.4-.3-.65-.71m44.3 12.92h8.35q.9 0 1.43.5.53.51.53 1.34v3.33h-22.32v-1.84q0-.57.23-1.19.24-.62.76-1.11l9.88-9.9q1.23-1.26 2.21-2.41.98-1.14 1.63-2.27.66-1.12 1-2.28.35-1.16.35-2.45 0-1.16-.33-2.05-.34-.89-.96-1.5t-1.49-.91q-.86-.3-1.94-.3-.99 0-1.84.28-.84.28-1.49.78-.65.51-1.1 1.19-.45.67-.68 1.48-.38 1.03-.99 1.37t-1.75.16l-2.93-.52q.34-2.34 1.31-4.1.96-1.77 2.41-2.95 1.46-1.18 3.33-1.78 1.88-.59 4.04-.59 2.25 0 4.12.66t3.2 1.88q1.32 1.21 2.07 2.92.74 1.71.74 3.8 0 1.81-.53 3.34-.53 1.52-1.42 2.92t-2.08 2.7-2.5 2.66l-7.33 7.49q1.06-.32 2.1-.49 1.05-.16 1.99-.16m38.25-.79v-3.9q-2.4.12-4.05.42-1.64.31-2.63.78t-1.42 1.1q-.42.63-.42 1.37 0 1.47.86 2.1.87.63 2.26.63 1.71 0 2.96-.62t2.44-1.88m-11.74-12.13-.99-1.78q3.98-3.64 9.58-3.64 2.03 0 3.63.66 1.59.67 2.7 1.85 1.1 1.18 1.67 2.82.58 1.64.58 3.6v14.58h-2.52q-.79 0-1.22-.24-.43-.23-.67-.95l-.5-1.67q-.88.79-1.71 1.39-.83.59-1.73 1-.9.4-1.93.62-1.02.21-2.26.21-1.46 0-2.7-.39-1.23-.4-2.13-1.18-.9-.79-1.4-1.96-.49-1.17-.49-2.72 0-.88.29-1.75.29-.86.95-1.65.67-.79 1.73-1.49 1.05-.69 2.59-1.21 1.55-.52 3.59-.85 2.05-.32 4.68-.39v-1.35q0-2.32-.99-3.43-.99-1.12-2.85-1.12-1.35 0-2.24.32-.89.31-1.57.71l-1.22.71q-.55.31-1.23.31-.58 0-.99-.3-.4-.3-.65-.71m36.72-5h5.56v23.09h-3.4q-1.1 0-1.4-1.01l-.38-1.85q-1.42 1.44-3.13 2.33t-4.02.89q-1.89 0-3.35-.64-1.45-.64-2.44-1.81t-1.49-2.78q-.51-1.61-.51-3.54v-14.68h5.56v14.68q0 2.11.98 3.27t2.93 1.16q1.44 0 2.7-.64t2.39-1.77zm18.74 23.45q-3.01 0-4.62-1.7t-1.61-4.69v-12.89h-2.36q-.45 0-.77-.29-.31-.3-.31-.88v-2.21l3.71-.6 1.17-6.3q.11-.45.43-.7.31-.25.81-.25h2.88v7.27h6.16v3.96h-6.16v12.51q0 1.08.52 1.69.53.6 1.46.6.51 0 .86-.12.35-.13.61-.26t.46-.26q.2-.12.41-.12.24 0 .4.12.16.13.34.37l1.66 2.7q-1.21 1.02-2.79 1.53-1.57.52-3.26.52m21.24-6.32v-3.9q-2.41.12-4.05.42-1.64.31-2.63.78t-1.42 1.1-.43 1.37q0 1.47.87 2.1t2.26.63q1.71 0 2.96-.62t2.44-1.88m-11.74-12.13-.99-1.78q3.98-3.64 9.58-3.64 2.03 0 3.62.66 1.6.67 2.7 1.85 1.11 1.18 1.68 2.82t.57 3.6v14.58h-2.52q-.78 0-1.21-.24-.43-.23-.68-.95l-.49-1.67q-.88.79-1.71 1.39-.83.59-1.73 1-.9.4-1.93.62-1.02.21-2.26.21-1.46 0-2.7-.39-1.24-.4-2.14-1.18-.9-.79-1.39-1.96-.5-1.17-.5-2.72 0-.88.3-1.75.29-.86.95-1.65.67-.79 1.72-1.49 1.06-.69 2.6-1.21t3.59-.85q2.05-.32 4.68-.39v-1.35q0-2.32-.99-3.43-.99-1.12-2.86-1.12-1.35 0-2.24.32-.88.31-1.56.71-.67.39-1.23.71-.55.31-1.22.31-.59 0-.99-.3-.41-.3-.65-.71"/></svg>