<svg xmlns="http://www.w3.org/2000/svg" width="520" height="650" viewBox="0 0 520 650"><rect width="100%" height="100%" fill="#1F352C"/><path fill="#F5EDD8" d="M124.51 322.425q0 2.78-.93 5.11-.93 2.32-2.61 4t-4.04 2.61-5.25.93h-9.64v-25.31h9.64q2.89 0 5.25.94t4.04 2.61 2.61 4q.93 2.32.93 5.11m-4.83 0q0-2.09-.55-3.74-.56-1.65-1.6-2.8t-2.52-1.76-3.33-.61h-4.92v17.81h4.92q1.85 0 3.33-.61t2.52-1.76q1.04-1.14 1.6-2.8.55-1.65.55-3.73m16.24-5.59q1.99 0 3.63.65 1.63.65 2.8 1.84 1.16 1.19 1.79 2.9.63 1.72.63 3.84 0 2.13-.63 3.85-.63 1.71-1.79 2.92-1.17 1.21-2.8 1.85-1.64.65-3.63.65-2.02 0-3.66-.65-1.65-.64-2.81-1.85t-1.8-2.92q-.64-1.72-.64-3.85 0-2.12.64-3.84.64-1.71 1.8-2.9t2.81-1.84q1.64-.65 3.66-.65m0 15.18q2.24 0 3.31-1.51 1.08-1.5 1.08-4.41 0-2.9-1.08-4.43-1.07-1.52-3.31-1.52-2.28 0-3.37 1.53-1.1 1.53-1.1 4.42t1.1 4.4q1.09 1.52 3.37 1.52m16.48 3.06h-4.32v-17.96h2.64q.84 0 1.1.79l.28 1.33q.48-.52.99-.96.52-.44 1.11-.75.58-.32 1.26-.5.67-.19 1.47-.19 1.7 0 2.8.92 1.09.92 1.63 2.44.42-.89 1.05-1.53t1.38-1.04q.76-.4 1.61-.59.84-.2 1.7-.2 1.49 0 2.64.46 1.16.45 1.95 1.33.78.87 1.2 2.13.41 1.26.41 2.89v11.43h-4.33v-11.43q0-1.71-.75-2.58t-2.2-.87q-.67 0-1.24.23t-.99.66q-.43.43-.68 1.07-.24.65-.24 1.49v11.43h-4.34v-11.43q0-1.8-.73-2.62-.73-.83-2.13-.83-.94 0-1.75.47-.82.46-1.52 1.27zm28.4-11.04h8.16q0-.84-.24-1.59-.23-.74-.71-1.3-.47-.56-1.19-.88-.73-.33-1.69-.33-1.88 0-2.95 1.07-1.08 1.07-1.38 3.03m11.03 2.6h-11.11q.1 1.39.49 2.39.38 1.01 1.01 1.67.63.65 1.5.98.86.32 1.91.32t1.82-.25q.76-.24 1.33-.54.56-.3.99-.54.43-.25.83-.25.55 0 .81.41l1.24 1.57q-.72.84-1.61 1.41t-1.86.91-1.98.48-1.95.14q-1.87 0-3.48-.62t-2.8-1.84q-1.19-1.21-1.88-3.01-.68-1.79-.68-4.15 0-1.84.6-3.46.59-1.62 1.7-2.82t2.72-1.9q1.6-.7 3.61-.7 1.7 0 3.13.55 1.44.54 2.47 1.58t1.62 2.56q.58 1.51.58 3.45 0 .98-.21 1.32t-.8.34m4.25-17.57h4.32v14.9h.81q.44 0 .69-.12.25-.11.52-.46l4.46-5.51q.28-.37.62-.56.34-.2.88-.2h3.96l-5.58 6.67q-.6.79-1.3 1.21.37.26.66.61t.55.75l5.98 8.72h-3.9q-.51 0-.87-.17-.37-.16-.62-.6l-4.58-6.81q-.25-.4-.51-.52-.26-.13-.79-.13h-.98v8.23h-4.32zm30.96 8.84.3 1.42q.54-.54 1.14-1.01.61-.46 1.28-.78.67-.33 1.44-.51.77-.19 1.68-.19 1.47 0 2.61.5t1.9 1.4 1.16 2.16q.39 1.25.39 2.75v11.43h-4.32v-11.43q0-1.64-.76-2.54-.75-.91-2.29-.91-1.12 0-2.1.51t-1.85 1.38v12.99h-4.33v-17.96h2.65q.84 0 1.1.79m25.48 12.53v-3.03q-1.87.09-3.15.33-1.28.23-2.05.6t-1.1.86-.33 1.07q0 1.13.67 1.62t1.76.49q1.33 0 2.3-.48t1.9-1.46m-9.14-9.43-.77-1.38q3.1-2.84 7.46-2.84 1.57 0 2.82.52 1.24.51 2.1 1.43.85.92 1.3 2.2t.45 2.8v11.34h-1.96q-.62 0-.95-.18-.33-.19-.52-.75l-.39-1.29q-.68.61-1.33 1.07-.65.47-1.35.78-.7.32-1.49.48-.8.17-1.76.17-1.14 0-2.1-.31-.96-.3-1.66-.92-.7-.61-1.09-1.52-.38-.91-.38-2.12 0-.68.22-1.35.23-.68.75-1.29.51-.61 1.34-1.15.82-.55 2.02-.95t2.79-.65q1.59-.26 3.64-.31v-1.05q0-1.8-.77-2.67t-2.22-.87q-1.05 0-1.74.25-.7.24-1.22.55-.53.31-.95.55-.43.25-.96.25-.45 0-.77-.24-.31-.24-.51-.55m21.23-2.8.26 2.03q.84-1.61 2-2.53 1.15-.92 2.73-.92 1.24 0 1.99.54l-.28 3.24q-.08.32-.25.45t-.45.13q-.26 0-.77-.09-.52-.09-1.01-.09-.72 0-1.28.21t-1 .61q-.45.39-.79.95t-.64 1.28v11.06h-4.32v-17.96h2.53q.67 0 .93.24t.35.85m22.14-1.09v1.79q0 .45-.16.89t-.42.72l-8.52 11.23h8.84v3.33h-13.86v-1.8q0-.3.14-.71t.42-.78l8.61-11.36h-8.67v-3.31zm6.6 6.92h8.15q0-.84-.23-1.59-.24-.74-.71-1.3-.48-.56-1.2-.88-.73-.33-1.69-.33-1.87 0-2.95 1.07t-1.37 3.03m11.02 2.6h-11.11q.1 1.39.49 2.39.38 1.01 1.01 1.67.63.65 1.5.98.87.32 1.92.32t1.81-.25q.76-.24 1.33-.54t1-.54q.42-.25.83-.25.54 0 .8.41l1.24 1.57q-.71.84-1.61 1.41-.89.57-1.86.91t-1.98.48q-1 .14-1.95.14-1.87 0-3.48-.62t-2.8-1.84q-1.19-1.21-1.87-3.01-.69-1.79-.69-4.15 0-1.84.6-3.46.59-1.62 1.71-2.82 1.11-1.2 2.71-1.9t3.61-.7q1.7 0 3.13.55 1.44.54 2.47 1.58t1.62 2.56q.59 1.51.59 3.45 0 .98-.21 1.32t-.81.34m15.52 3.12v-8.05q-.73-.89-1.6-1.26-.86-.37-1.86-.37-.98 0-1.77.37t-1.35 1.11-.85 1.89q-.3 1.15-.3 2.7 0 1.58.25 2.67.26 1.1.73 1.79t1.15 1q.69.3 1.53.3 1.34 0 2.29-.56.94-.56 1.78-1.59m0-20.69h4.33v26.01h-2.65q-.85 0-1.08-.79l-.37-1.73q-1.08 1.24-2.49 2.01t-3.28.77q-1.47 0-2.7-.61-1.22-.61-2.11-1.78-.88-1.16-1.36-2.88-.48-1.71-.48-3.92 0-1.99.54-3.71.54-1.71 1.56-2.97 1.01-1.26 2.43-1.97t3.18-.71q1.51 0 2.58.47 1.06.48 1.9 1.28zm21.49 8.05v1.79q0 .45-.15.89-.16.44-.42.72l-8.53 11.23h8.84v3.33h-13.86v-1.8q0-.3.14-.71t.42-.78l8.61-11.36h-8.66v-3.31zm3.33 0h4.34v17.96h-4.34zm4.93-5.23q0 .56-.22 1.05-.23.49-.61.86-.37.37-.88.59-.51.21-1.09.21-.56 0-1.05-.21-.5-.22-.87-.59t-.59-.86-.22-1.05q0-.58.22-1.08.22-.51.59-.88t.87-.58q.49-.22 1.05-.22.58 0 1.09.22.51.21.88.58.38.37.61.88.22.5.22 1.08m11.76 4.95q2 0 3.64.65 1.63.65 2.8 1.84 1.16 1.19 1.79 2.9.63 1.72.63 3.84 0 2.13-.63 3.85-.63 1.71-1.79 2.92-1.17 1.21-2.8 1.85-1.64.65-3.64.65-2.01 0-3.65-.65-1.65-.64-2.81-1.85-1.17-1.21-1.8-2.92-.64-1.72-.64-3.85 0-2.12.64-3.84.63-1.71 1.8-2.9 1.16-1.19 2.81-1.84 1.64-.65 3.65-.65m0 15.18q2.24 0 3.32-1.51 1.08-1.5 1.08-4.41 0-2.9-1.08-4.43-1.08-1.52-3.32-1.52-2.27 0-3.36 1.53-1.1 1.53-1.1 4.42t1.1 4.4q1.09 1.52 3.36 1.52m34.51-14.9h3.29l-5.7 17.96h-3.47q-.59 0-.82-.77l-3.22-10.38q-.16-.52-.29-1.04t-.22-1.04q-.1.52-.23 1.06-.13.53-.29 1.06l-3.27 10.34q-.21.77-.93.77h-3.33l-5.68-17.96h3.44q.48 0 .81.23t.44.58l2.57 9.59q.19.79.34 1.54t.25 1.5q.2-.75.42-1.5.21-.75.46-1.54l2.97-9.63q.11-.35.42-.57.3-.23.74-.23h1.91q.45 0 .78.23.32.22.42.57l2.89 9.63q.23.79.43 1.55t.39 1.51q.23-1.49.65-3.06l2.64-9.59q.13-.35.44-.58.32-.23.75-.23m18.59 0h3.46l-9.78 22.9q-.19.45-.5.69-.3.23-.93.23h-3.22l3.36-7.21-7.27-16.61h3.8q.51 0 .8.25.29.24.43.56l3.81 9.31q.19.47.33.94.13.48.25.97.16-.49.31-.97.16-.49.35-.96l3.61-9.29q.14-.35.46-.58.33-.23.73-.23"/></svg>