<svg xmlns="http://www.w3.org/2000/svg" width="900" height="620" viewBox="0 0 900 620"><rect width="100%" height="100%" fill="#2D4A3E"/><path fill="#F5EDD8" d="M189.96 305.54h5.73q2.11 0 3.68-.53t2.61-1.51 1.55-2.39.51-3.15q0-1.66-.51-3-.51-1.33-1.54-2.27-1.03-.95-2.59-1.44-1.57-.5-3.71-.5h-5.73zm-7.66-20.72h13.39q4.13 0 7.15.97 3.03.97 4.99 2.71 1.97 1.73 2.92 4.16.96 2.42.96 5.3 0 2.99-1 5.48-1 2.5-2.99 4.29-2 1.8-5 2.8-3.01.99-7.03.99h-5.73v14.51h-7.66zm39.73 23.23h13.28q0-1.37-.39-2.58-.38-1.21-1.15-2.13-.77-.91-1.96-1.44-1.18-.52-2.75-.52-3.04 0-4.8 1.74-1.75 1.73-2.23 4.93m17.95 4.24h-18.1q.17 2.25.8 3.89t1.65 2.71q1.03 1.07 2.44 1.6 1.41.52 3.12.52t2.95-.4q1.24-.39 2.17-.88.92-.48 1.62-.88t1.36-.4q.88 0 1.31.65l2.02 2.57q-1.17 1.37-2.62 2.29-1.46.93-3.04 1.49-1.58.55-3.22.78t-3.18.23q-3.05 0-5.67-1.01-2.62-1.02-4.56-3t-3.05-4.9-1.11-6.77q0-2.99.97-5.63.97-2.63 2.78-4.58 1.81-1.96 4.42-3.1 2.6-1.14 5.88-1.14 2.77 0 5.1.89 2.34.88 4.02 2.58 1.68 1.69 2.64 4.16.95 2.46.95 5.63 0 1.59-.34 2.15-.34.55-1.31.55m13.14-13.73.43 3.3q1.36-2.62 3.25-4.12 1.88-1.49 4.44-1.49 2.02 0 3.25.88l-.46 5.27q-.14.52-.41.73t-.73.21q-.42 0-1.26-.14t-1.64-.14q-1.17 0-2.08.34-.92.34-1.64.98-.73.65-1.28 1.56-.56.91-1.04 2.08v18.01h-7.04v-29.24h4.13q1.08 0 1.51.38.43.39.57 1.39m25.73 12.14q1.32 0 2.28-.36.97-.36 1.61-.98.65-.63.97-1.51.33-.89.33-1.94 0-2.17-1.3-3.44-1.29-1.26-3.89-1.26-2.59 0-3.89 1.26-1.29 1.27-1.29 3.44 0 1.02.32 1.91.33.88.97 1.52.65.64 1.63 1t2.26.36m7.96 16.64q0-.85-.52-1.4-.51-.54-1.39-.84-.89-.3-2.07-.44t-2.51-.21q-1.32-.07-2.73-.13t-2.75-.23q-1.17.66-1.9 1.54t-.73 2.05q0 .77.39 1.44.38.67 1.22 1.16.84.48 2.18.75t3.28.27q1.97 0 3.39-.3 1.43-.3 2.35-.82.93-.53 1.36-1.26.43-.72.43-1.58m-1.4-29.55h8.41v2.62q0 1.25-1.51 1.54l-2.63.48q.6 1.51.6 3.31 0 2.16-.87 3.92-.87 1.75-2.4 2.97-1.54 1.23-3.64 1.9-2.09.67-4.52.67-.85 0-1.65-.09-.8-.08-1.57-.22-1.36.82-1.36 1.85 0 .88.81 1.3.81.41 2.15.58t3.05.21q1.71.05 3.5.19 1.8.14 3.51.5 1.71.35 3.05 1.12t2.15 2.1q.81 1.32.81 3.4 0 1.94-.95 3.77-.96 1.82-2.77 3.25-1.81 1.42-4.44 2.29-2.64.87-6 .87-3.31 0-5.76-.64t-4.07-1.71q-1.63-1.07-2.43-2.47-.79-1.39-.79-2.91 0-2.05 1.24-3.43t3.4-2.21q-1.17-.6-1.85-1.59-.68-1-.68-2.63 0-.65.24-1.35t.71-1.38q.47-.69 1.18-1.3.72-.61 1.68-1.1-2.22-1.19-3.49-3.19-1.27-1.99-1.27-4.67 0-2.17.87-3.92t2.43-2.99q1.55-1.24 3.67-1.9 2.13-.65 4.63-.65 1.89 0 3.54.38 1.65.39 3.02 1.13m25.79-1.46q3.25 0 5.92 1.06 2.66 1.05 4.56 2.99 1.89 1.94 2.92 4.73 1.02 2.79 1.02 6.24 0 3.48-1.02 6.27-1.03 2.8-2.92 4.76-1.9 1.97-4.56 3.02-2.67 1.06-5.92 1.06-3.28 0-5.95-1.06-2.68-1.05-4.58-3.02-1.89-1.96-2.93-4.76-1.04-2.79-1.04-6.27 0-3.45 1.04-6.24t2.93-4.73q1.9-1.94 4.58-2.99 2.67-1.06 5.95-1.06m0 24.71q3.65 0 5.4-2.45 1.76-2.45 1.76-7.18t-1.76-7.21q-1.75-2.48-5.4-2.48-3.7 0-5.48 2.49-1.79 2.5-1.79 7.2t1.79 7.17q1.78 2.46 5.48 2.46m19.89-37.36h7.04v42.35h-7.04zm29.53 34.8v-4.93q-3.05.14-5.13.52-2.08.39-3.33.99-1.26.6-1.8 1.39-.54.8-.54 1.74 0 1.85 1.1 2.65 1.09.8 2.86.8 2.17 0 3.75-.78 1.58-.79 3.09-2.38m-14.88-15.36-1.25-2.26q5.04-4.61 12.14-4.61 2.57 0 4.59.84t3.42 2.34q1.4 1.49 2.12 3.57.73 2.08.73 4.56v18.47h-3.19q-1 0-1.54-.3t-.86-1.21l-.62-2.11q-1.12 1-2.17 1.75-1.05.76-2.19 1.27t-2.44.79q-1.3.27-2.87.27-1.85 0-3.42-.5-1.56-.5-2.7-1.5t-1.77-2.48-.63-3.45q0-1.11.37-2.21.37-1.09 1.21-2.09.85-1 2.19-1.88 1.33-.89 3.29-1.54 1.95-.66 4.54-1.07 2.6-.41 5.93-.5v-1.71q0-2.93-1.25-4.34-1.26-1.42-3.62-1.42-1.71 0-2.84.4-1.12.4-1.98.9-.85.5-1.55.9t-1.56.4q-.74 0-1.25-.39-.51-.38-.83-.89m78.61-6.33h5.35l-9.29 29.24h-5.64q-.97 0-1.34-1.25l-5.24-16.9q-.26-.86-.47-1.7-.22-.84-.36-1.7-.17.86-.38 1.73-.22.87-.47 1.72l-5.33 16.85q-.35 1.25-1.51 1.25h-5.42l-9.26-29.24h5.61q.77 0 1.31.37.55.37.72.94l4.19 15.62q.31 1.28.55 2.51.24 1.22.41 2.45.32-1.23.67-2.45.36-1.23.76-2.51l4.84-15.68q.18-.57.67-.94.5-.37 1.22-.37h3.1q.74 0 1.27.37t.7.94l4.7 15.68q.37 1.28.7 2.52t.64 2.47q.37-2.43 1.06-4.99l4.3-15.62q.2-.57.71-.94t1.23-.37m22.28-.46q3.25 0 5.92 1.06 2.66 1.05 4.56 2.99 1.89 1.94 2.92 4.73 1.02 2.79 1.02 6.24 0 3.48-1.02 6.27-1.03 2.8-2.92 4.76-1.9 1.97-4.56 3.02-2.67 1.06-5.92 1.06-3.27 0-5.95-1.06-2.68-1.05-4.58-3.02-1.89-1.96-2.93-4.76-1.04-2.79-1.04-6.27 0-3.45 1.04-6.24t2.93-4.73q1.9-1.94 4.58-2.99 2.68-1.06 5.95-1.06m0 24.71q3.65 0 5.4-2.45 1.76-2.45 1.76-7.18t-1.76-7.21q-1.75-2.48-5.4-2.48-3.7 0-5.48 2.49-1.78 2.5-1.78 7.2t1.78 7.17q1.78 2.46 5.48 2.46m19.9-37.36h7.04v42.35h-7.04zm20.17 14.39.49 2.31q.88-.88 1.87-1.64.98-.75 2.08-1.28 1.09-.53 2.35-.83 1.25-.3 2.73-.3 2.4 0 4.25.82 1.85.81 3.09 2.28 1.24 1.46 1.88 3.5t.64 4.49v18.61h-7.03v-18.61q0-2.68-1.23-4.15t-3.73-1.47q-1.83 0-3.42.83-1.6.83-3.02 2.25v21.15h-7.04v-29.24h4.3q1.37 0 1.79 1.28m38.99-1.74q3.25 0 5.92 1.06 2.66 1.05 4.56 2.99 1.89 1.94 2.92 4.73 1.02 2.79 1.02 6.24 0 3.48-1.02 6.27-1.03 2.8-2.92 4.76-1.9 1.97-4.56 3.02-2.67 1.06-5.92 1.06-3.27 0-5.95-1.06-2.68-1.05-4.58-3.02-1.89-1.96-2.93-4.76-1.04-2.79-1.04-6.27 0-3.45 1.04-6.24t2.93-4.73q1.9-1.94 4.58-2.99 2.68-1.06 5.95-1.06m0 24.71q3.65 0 5.4-2.45 1.76-2.45 1.76-7.18t-1.76-7.21q-1.75-2.48-5.4-2.48-3.7 0-5.48 2.49-1.78 2.5-1.78 7.2t1.78 7.17q1.78 2.46 5.48 2.46m39.25-21.09-1.6 2.54q-.28.45-.6.64-.31.19-.8.19-.51 0-1.09-.29-.59-.28-1.36-.64t-1.75-.64q-.98-.29-2.32-.29-2.08 0-3.27.89-1.18.88-1.18 2.3 0 .95.61 1.59.62.64 1.63 1.12 1.01.49 2.29.87 1.29.39 2.61.84 1.33.46 2.61 1.04 1.28.59 2.29 1.48 1.02.9 1.63 2.16.61 1.25.61 3.02 0 2.11-.75 3.89-.76 1.78-2.24 3.08-1.48 1.29-3.66 2.02t-5.03.73q-1.51 0-2.95-.27-1.44-.28-2.77-.76-1.32-.48-2.45-1.14t-1.98-1.43l1.62-2.67q.32-.49.75-.75.42-.25 1.08-.25.65 0 1.24.37.58.37 1.35.8.77.42 1.81.8 1.04.37 2.64.37 1.25 0 2.15-.3t1.48-.79q.59-.48.86-1.12t.27-1.33q0-1.02-.62-1.68-.61-.66-1.62-1.14t-2.31-.87q-1.3-.38-2.65-.84t-2.65-1.07-2.31-1.55-1.62-2.31q-.62-1.37-.62-3.31 0-1.79.72-3.42.71-1.62 2.09-2.83t3.45-1.94 4.77-.73q3.03 0 5.5 1 2.48 1 4.14 2.62m15.36 26.54q-3.82 0-5.86-2.16-2.04-2.15-2.04-5.94v-16.33h-2.99q-.57 0-.97-.37t-.4-1.11v-2.79l4.71-.77 1.48-7.98q.14-.57.54-.89.4-.31 1.03-.31h3.64v9.21h7.81v5.01h-7.81v15.85q0 1.37.67 2.13.67.77 1.84.77.66 0 1.1-.15.44-.16.77-.33t.58-.33q.26-.15.52-.15.31 0 .51.15.2.16.43.47l2.11 3.42q-1.54 1.29-3.54 1.94-1.99.66-4.13.66m24.39-30.16q3.25 0 5.92 1.06 2.66 1.05 4.56 2.99 1.89 1.94 2.92 4.73t1.03 6.24q0 3.48-1.03 6.27-1.03 2.8-2.92 4.76-1.9 1.97-4.56 3.02-2.67 1.06-5.92 1.06-3.27 0-5.95-1.06-2.68-1.05-4.58-3.02-1.89-1.96-2.93-4.76-1.04-2.79-1.04-6.27 0-3.45 1.04-6.24t2.93-4.73q1.9-1.94 4.58-2.99 2.68-1.06 5.95-1.06m0 24.71q3.65 0 5.41-2.45 1.75-2.45 1.75-7.18t-1.75-7.21q-1.76-2.48-5.41-2.48-3.7 0-5.48 2.49-1.78 2.5-1.78 7.2t1.78 7.17q1.78 2.46 5.48 2.46m20.04-24.25h7.07v30.24q0 1.91-.5 3.59t-1.6 2.95q-1.09 1.27-2.88 1.99-1.78.73-4.34.73-1 0-1.85-.13-.86-.13-1.77-.41l.26-3.79q.08-.57.45-.73t1.43-.16q1.05 0 1.78-.21.72-.21 1.15-.68t.61-1.24q.19-.77.19-1.91zm8.04-8.52q0 .91-.37 1.71t-.99 1.39q-.61.6-1.45.96t-1.78.36q-.91 0-1.71-.36t-1.4-.96q-.6-.59-.95-1.39-.36-.8-.36-1.71 0-.94.36-1.77.35-.83.95-1.42.6-.6 1.4-.96t1.71-.36q.94 0 1.78.36t1.45.96q.62.59.99 1.42t.37 1.77m21.66 30.21v-4.93q-3.05.14-5.13.52-2.08.39-3.34.99-1.25.6-1.79 1.39-.54.8-.54 1.74 0 1.85 1.09 2.65 1.1.8 2.87.8 2.16 0 3.74-.78 1.59-.79 3.1-2.38m-14.88-15.36-1.25-2.26q5.04-4.61 12.14-4.61 2.56 0 4.59.84 2.02.84 3.42 2.34 1.39 1.49 2.12 3.57t.73 4.56v18.47h-3.2q-.99 0-1.54-.3-.54-.3-.85-1.21l-.63-2.11q-1.11 1-2.16 1.75-1.06.76-2.2 1.27t-2.43.79q-1.3.27-2.87.27-1.85 0-3.42-.5t-2.71-1.5-1.76-2.48q-.63-1.48-.63-3.45 0-1.11.37-2.21.37-1.09 1.21-2.09t2.18-1.88q1.34-.89 3.29-1.54 1.96-.66 4.55-1.07t5.93-.5v-1.71q0-2.93-1.26-4.34-1.25-1.42-3.62-1.42-1.71 0-2.83.4-1.13.4-1.98.9-.86.5-1.56.9-.69.4-1.55.4-.74 0-1.25-.39-.52-.38-.83-.89m51.16-2.71-1.85 2.56q-.32.4-.62.63t-.87.23q-.54 0-1.05-.33t-1.23-.74q-.71-.41-1.69-.74-.99-.33-2.44-.33-1.85 0-3.25.67-1.39.67-2.32 1.92-.93 1.26-1.38 3.04-.46 1.78-.46 4.03 0 2.34.5 4.16.5 1.83 1.44 3.07t2.28 1.88 3.02.64 2.72-.41q1.04-.42 1.75-.92.72-.49 1.24-.91.53-.41 1.19-.41.85 0 1.28.65l2.02 2.57q-1.17 1.37-2.53 2.29-1.37.93-2.84 1.49-1.47.55-3.02.78t-3.09.23q-2.71 0-5.1-1.01-2.4-1.02-4.19-2.95-1.8-1.94-2.84-4.75t-1.04-6.4q0-3.22.93-5.97.92-2.75 2.72-4.76 1.79-2.01 4.44-3.15t6.1-1.14q3.28 0 5.75 1.06 2.46 1.05 4.43 3.02m20.12 18.07v-4.93q-3.05.14-5.13.52-2.08.39-3.34.99-1.25.6-1.79 1.39-.54.8-.54 1.74 0 1.85 1.09 2.65 1.1.8 2.87.8 2.16 0 3.75-.78 1.58-.79 3.09-2.38m-14.88-15.36-1.25-2.26q5.04-4.61 12.14-4.61 2.56 0 4.59.84 2.02.84 3.42 2.34 1.39 1.49 2.12 3.57t.73 4.56v18.47h-3.19q-1 0-1.54-.3-.55-.3-.86-1.21l-.63-2.11q-1.11 1-2.16 1.75-1.06.76-2.2 1.27t-2.43.79q-1.3.27-2.87.27-1.85 0-3.42-.5-1.56-.5-2.7-1.5t-1.77-2.48-.63-3.45q0-1.11.37-2.21.37-1.09 1.21-2.09t2.18-1.88q1.34-.89 3.29-1.54 1.96-.66 4.55-1.07t5.93-.5v-1.71q0-2.93-1.26-4.34-1.25-1.42-3.61-1.42-1.71 0-2.84.4t-1.98.9l-1.55.9q-.7.4-1.56.4-.74 0-1.25-.39-.51-.38-.83-.89"/></svg>