<svg xmlns="http://www.w3.org/2000/svg" width="520" height="650" viewBox="0 0 520 650"><rect width="100%" height="100%" fill="#2D4A3E"/><path fill="#F5EDD8" d="M107.07 322.185h3.62q1.33 0 2.32-.34.99-.33 1.65-.95t.98-1.51.32-1.99q0-1.04-.32-1.89t-.97-1.44-1.64-.91q-.99-.31-2.34-.31h-3.62zm-4.84-13.09h8.46q2.61 0 4.52.61 1.9.62 3.15 1.71 1.24 1.1 1.84 2.63t.6 3.35q0 1.89-.63 3.46-.63 1.58-1.88 2.71-1.26 1.14-3.16 1.77t-4.44.63h-3.62v9.16h-4.84zm25.09 14.67h8.39q0-.86-.24-1.63-.25-.76-.73-1.34-.49-.57-1.24-.91-.74-.33-1.73-.33-1.93 0-3.04 1.1-1.1 1.1-1.41 3.11m11.34 2.68h-11.43q.11 1.43.5 2.46.4 1.04 1.05 1.71.65.68 1.54 1.01t1.97.33 1.86-.25 1.37-.56q.58-.3 1.03-.56.44-.25.85-.25.56 0 .83.42l1.28 1.62q-.74.86-1.66 1.44-.92.59-1.92.94t-2.03.5q-1.04.14-2.01.14-1.92 0-3.58-.64t-2.88-1.89-1.93-3.1q-.7-1.84-.7-4.27 0-1.89.61-3.56.62-1.66 1.76-2.89 1.14-1.24 2.79-1.96t3.72-.72q1.74 0 3.22.56 1.47.56 2.54 1.63 1.06 1.07 1.66 2.63t.6 3.55q0 1.01-.21 1.36-.22.35-.83.35m8.3-8.67.27 2.09q.86-1.66 2.05-2.61 1.19-.94 2.81-.94 1.28 0 2.05.56l-.29 3.33q-.09.32-.26.46-.17.13-.46.13-.27 0-.8-.09t-1.03-.09q-.74 0-1.32.22-.57.21-1.03.62-.46.4-.81.98t-.66 1.31v11.38h-4.45v-18.47h2.61q.69 0 .96.24.27.25.36.88m16.25 7.67q.83 0 1.44-.23.61-.22 1.02-.62.4-.4.61-.95.21-.56.21-1.23 0-1.37-.82-2.17t-2.46-.8-2.45.8q-.82.8-.82 2.17 0 .65.2 1.21.21.56.62.96.4.41 1.02.63.62.23 1.43.23m5.02 10.51q0-.54-.32-.88-.32-.35-.88-.54-.56-.18-1.31-.27-.74-.09-1.58-.14-.84-.04-1.73-.08t-1.74-.14q-.73.41-1.19.97t-.46 1.29q0 .49.24.91.24.43.78.73.53.31 1.37.48.85.17 2.07.17 1.24 0 2.14-.19t1.49-.52q.58-.33.85-.79t.27-1m-.88-18.67h5.31v1.66q0 .79-.95.97l-1.66.31q.38.95.38 2.08 0 1.37-.55 2.48t-1.52 1.88-2.29 1.2q-1.33.42-2.86.42-.54 0-1.04-.05-.51-.06-.99-.15-.87.52-.87 1.17 0 .56.52.82.51.26 1.36.37.84.11 1.92.13 1.08.03 2.22.12 1.13.09 2.21.32 1.08.22 1.93.71.84.48 1.36 1.32.51.84.51 2.15 0 1.23-.6 2.38-.61 1.15-1.75 2.05t-2.81 1.45q-1.66.55-3.79.55-2.09 0-3.63-.41-1.55-.4-2.58-1.08-1.02-.67-1.53-1.55-.5-.89-.5-1.84 0-1.3.78-2.17t2.15-1.39q-.74-.38-1.17-1.01t-.43-1.66q0-.41.15-.85.16-.44.45-.88.3-.43.75-.82.45-.38 1.06-.69-1.4-.75-2.2-2.01t-.8-2.96q0-1.36.55-2.47.54-1.11 1.53-1.89.98-.78 2.32-1.2 1.34-.41 2.92-.41 1.19 0 2.23.24 1.05.24 1.91.71m16.29-.92q2.05 0 3.74.67 1.68.67 2.88 1.89 1.19 1.22 1.84 2.99.65 1.76.65 3.94 0 2.2-.65 3.96t-1.84 3.01q-1.2 1.24-2.88 1.9-1.69.67-3.74.67-2.07 0-3.76-.67-1.69-.66-2.89-1.9-1.2-1.25-1.85-3.01-.66-1.76-.66-3.96 0-2.18.66-3.94.65-1.77 1.85-2.99t2.89-1.89 3.76-.67m0 15.61q2.31 0 3.41-1.55 1.11-1.55 1.11-4.53 0-2.99-1.11-4.56-1.1-1.56-3.41-1.56-2.34 0-3.46 1.57-1.13 1.58-1.13 4.55t1.13 4.52q1.12 1.56 3.46 1.56m12.57-23.6h4.44v26.75h-4.44zm18.64 21.98v-3.11q-1.92.09-3.24.33-1.31.24-2.1.62t-1.14.88q-.34.51-.34 1.1 0 1.17.7 1.67.69.51 1.8.51 1.37 0 2.37-.5 1-.49 1.95-1.5m-9.39-9.7-.79-1.42q3.18-2.92 7.66-2.92 1.62 0 2.9.53t2.16 1.48q.88.94 1.34 2.26.46 1.31.46 2.88v11.66h-2.01q-.63 0-.98-.19-.34-.19-.54-.76l-.39-1.34q-.7.63-1.37 1.11t-1.39.8q-.72.33-1.53.5-.82.17-1.81.17-1.17 0-2.16-.32-.99-.31-1.71-.94t-1.12-1.57q-.4-.93-.4-2.18 0-.7.24-1.39.23-.69.76-1.32t1.38-1.19 2.08-.97q1.23-.42 2.87-.68t3.74-.31v-1.08q0-1.86-.79-2.75t-2.28-.89q-1.08 0-1.79.25-.72.25-1.26.57-.54.31-.98.57-.44.25-.98.25-.47 0-.79-.25-.32-.24-.52-.56m31.1 1.4v8.28q.76.92 1.65 1.3t1.93.38q1.01 0 1.82-.38t1.38-1.15q.57-.78.87-1.96.31-1.18.31-2.78 0-1.62-.26-2.74-.26-1.13-.75-1.83t-1.18-1.03q-.69-.32-1.57-.32-1.39 0-2.36.58-.97.59-1.84 1.65m-.59-4.59.36 1.71q1.13-1.28 2.57-2.07t3.39-.79q1.51 0 2.76.63t2.16 1.83q.91 1.19 1.4 2.95.5 1.75.5 4.02 0 2.07-.56 3.84-.56 1.76-1.59 3.06-1.04 1.29-2.5 2.02-1.47.73-3.29.73-1.55 0-2.65-.48-1.09-.47-1.96-1.32v7.56h-4.44v-24.5h2.71q.87 0 1.14.81m20.52.31.27 2.09q.86-1.66 2.05-2.61 1.19-.94 2.81-.94 1.28 0 2.05.56l-.29 3.33q-.09.32-.26.46-.17.13-.46.13-.27 0-.8-.09t-1.03-.09q-.74 0-1.32.22-.57.21-1.03.62-.46.4-.81.98t-.66 1.31v11.38h-4.45v-18.47h2.61q.69 0 .96.24.27.25.36.88m22.77-1.12v1.84q0 .47-.16.92-.17.45-.44.73l-8.76 11.56h9.09v3.42h-14.26v-1.85q0-.31.15-.73.14-.43.43-.8l8.85-11.69h-8.91v-3.4zm16.49 0h3.56l-10.06 23.55q-.2.46-.51.71-.32.24-.97.24h-3.31l3.46-7.42-7.47-17.08h3.9q.52 0 .82.25.3.26.44.58l3.93 9.58q.19.48.33.97.13.48.26.99.16-.51.32-1 .17-.5.36-.98l3.71-9.56q.15-.36.48-.59.33-.24.75-.24m18.05 2-1.01 1.6q-.18.29-.37.41-.2.11-.51.11-.32 0-.69-.18t-.86-.4q-.48-.23-1.1-.41-.63-.18-1.47-.18-1.31 0-2.06.56t-.75 1.46q0 .59.39 1 .39.4 1.02.71.64.31 1.45.55t1.65.53 1.65.66 1.45.93q.64.57 1.02 1.36.39.79.39 1.91 0 1.33-.48 2.46-.47 1.12-1.41 1.94t-2.31 1.28q-1.38.46-3.18.46-.95 0-1.86-.17t-1.75-.48-1.55-.72-1.25-.9l1.03-1.69q.2-.31.46-.47.28-.16.69-.16t.78.23q.37.24.86.51.48.27 1.14.5t1.67.23q.79 0 1.35-.19.57-.18.94-.49t.54-.71q.17-.41.17-.84 0-.65-.39-1.06-.38-.41-1.02-.72t-1.46-.55-1.67-.53q-.86-.29-1.68-.68-.82-.38-1.46-.98-.64-.59-1.02-1.45-.39-.87-.39-2.09 0-1.14.45-2.16.45-1.03 1.32-1.79.88-.77 2.18-1.23 1.31-.46 3.02-.46 1.91 0 3.47.63 1.57.63 2.61 1.66m17.95.29-1.17 1.62q-.2.25-.39.39-.19.15-.55.15-.34 0-.66-.21-.33-.21-.78-.47t-1.07-.47q-.62-.2-1.54-.2-1.17 0-2.05.42t-1.47 1.22q-.58.79-.87 1.91-.29 1.13-.29 2.55 0 1.48.32 2.63.31 1.15.91 1.93.59.79 1.44 1.19.84.41 1.9.41 1.07 0 1.72-.27.66-.26 1.11-.57.45-.32.78-.58.34-.26.75-.26.54 0 .81.42l1.28 1.62q-.74.86-1.6 1.44-.87.59-1.8.94-.92.35-1.9.5-.98.14-1.96.14-1.71 0-3.22-.64t-2.64-1.86q-1.14-1.23-1.8-3-.65-1.77-.65-4.04 0-2.03.58-3.77.59-1.74 1.72-3.01 1.14-1.27 2.81-1.99t3.85-.72q2.07 0 3.63.67t2.8 1.91m3.09-2.29h4.47v18.47h-4.47zm5.08-5.38q0 .58-.23 1.08-.24.5-.63.88-.38.38-.9.6-.53.23-1.12.23-.58 0-1.09-.23-.51-.22-.89-.6t-.6-.88q-.23-.5-.23-1.08 0-.59.23-1.12.22-.52.6-.9.38-.37.89-.6.51-.22 1.09-.22.59 0 1.12.22.52.23.9.6.39.38.63.9.23.53.23 1.12m7.43 12.49h8.39q0-.86-.24-1.63-.24-.76-.73-1.34-.49-.57-1.23-.91-.75-.33-1.74-.33-1.93 0-3.03 1.1-1.11 1.1-1.42 3.11m11.34 2.68h-11.43q.11 1.43.51 2.46.39 1.04 1.04 1.71.65.68 1.54 1.01t1.97.33 1.86-.25q.79-.25 1.37-.56.59-.3 1.03-.56.44-.25.85-.25.56 0 .83.42l1.28 1.62q-.74.86-1.66 1.44-.91.59-1.91.94t-2.04.5q-1.03.14-2 .14-1.93 0-3.59-.64-1.65-.64-2.88-1.89-1.22-1.25-1.92-3.1-.7-1.84-.7-4.27 0-1.89.61-3.56.61-1.66 1.75-2.89 1.15-1.24 2.79-1.96 1.65-.72 3.72-.72 1.75 0 3.22.56 1.48.56 2.54 1.63t1.66 2.63q.61 1.56.61 3.55 0 1.01-.22 1.36-.21.35-.83.35m8.23-8.98.31 1.46q.55-.56 1.17-1.04.63-.47 1.32-.81.69-.33 1.48-.52.8-.19 1.73-.19 1.51 0 2.68.52 1.17.51 1.96 1.44.78.92 1.18 2.21.41 1.29.41 2.84v11.75h-4.45v-11.75q0-1.7-.77-2.62-.77-.93-2.36-.93-1.15 0-2.16.52t-1.91 1.42v13.36h-4.44v-18.47h2.72q.86 0 1.13.81m20.3 0 .31 1.46q.56-.56 1.18-1.04.62-.47 1.31-.81.7-.33 1.49-.52t1.73-.19q1.51 0 2.68.52 1.17.51 1.95 1.44.78.92 1.19 2.21.4 1.29.4 2.84v11.75h-4.44v-11.75q0-1.7-.78-2.62-.77-.93-2.35-.93-1.16 0-2.16.52-1.01.52-1.91 1.42v13.36h-4.45v-18.47h2.72q.86 0 1.13.81m26.21 12.89v-3.11q-1.92.09-3.24.33-1.31.24-2.1.62-.8.38-1.14.88-.34.51-.34 1.1 0 1.17.69 1.67.7.51 1.81.51 1.37 0 2.37-.5 1-.49 1.95-1.5m-9.39-9.7-.8-1.42q3.19-2.92 7.67-2.92 1.62 0 2.9.53t2.16 1.48q.88.94 1.34 2.26.46 1.31.46 2.88v11.66h-2.02q-.63 0-.97-.19t-.54-.76l-.39-1.34q-.71.63-1.37 1.11-.67.48-1.39.8-.72.33-1.54.5t-1.81.17q-1.17 0-2.16-.32-.99-.31-1.71-.94t-1.11-1.57q-.4-.93-.4-2.18 0-.7.24-1.39.23-.69.76-1.32t1.38-1.19q.84-.56 2.08-.97 1.23-.42 2.87-.68t3.74-.31v-1.08q0-1.86-.79-2.75t-2.29-.89q-1.08 0-1.79.25t-1.25.57q-.54.31-.98.57-.44.25-.98.25-.47 0-.79-.25-.33-.24-.52-.56"/></svg>