<svg xmlns="http://www.w3.org/2000/svg" width="640" height="520" viewBox="0 0 640 520"><rect width="100%" height="100%" fill="#1F352C"/><path fill="#F5EDD8" d="M153.855 242.58v2.43q0 1.13-.64 2.06l-18.18 25.67h18.4v5.27h-26.95v-2.6q0-.49.17-.94.18-.45.44-.85l18.23-25.79h-17.69v-5.25zm17.59 28.94v-4.24q-2.62.12-4.41.45t-2.87.85q-1.07.51-1.54 1.2-.47.68-.47 1.49 0 1.59.95 2.28.94.69 2.46.69 1.86 0 3.22-.68 1.36-.67 2.66-2.04m-12.79-13.21-1.08-1.93q4.34-3.97 10.44-3.97 2.2 0 3.94.72t2.94 2.01 1.83 3.07q.62 1.79.62 3.92v15.88h-2.74q-.86 0-1.32-.26-.47-.25-.74-1.04l-.54-1.81q-.95.86-1.86 1.51-.91.64-1.89 1.09-.98.44-2.09.67t-2.46.23q-1.59 0-2.94-.43t-2.33-1.28q-.98-.86-1.52-2.13-.54-1.28-.54-2.97 0-.95.32-1.9.32-.94 1.04-1.8t1.88-1.62q1.15-.76 2.83-1.32 1.67-.56 3.9-.92 2.23-.35 5.1-.43v-1.47q0-2.52-1.08-3.73t-3.11-1.21q-1.47 0-2.44.34t-1.7.77q-.74.43-1.34.77t-1.33.34q-.64 0-1.08-.33t-.71-.77m40.16 12.25v-11.27q-1.03-1.25-2.25-1.76-1.21-.52-2.6-.52-1.38 0-2.48.52-1.1.51-1.89 1.55-.78 1.04-1.2 2.65-.41 1.6-.41 3.78 0 2.21.35 3.74.36 1.53 1.02 2.5t1.62 1.4q.95.43 2.13.43 1.88 0 3.21-.79 1.32-.78 2.5-2.23m0-28.96h6.05v36.41h-3.7q-1.2 0-1.52-1.1l-.52-2.43q-1.51 1.74-3.49 2.82-1.97 1.08-4.59 1.08-2.06 0-3.77-.86-1.72-.86-2.96-2.49-1.23-1.63-1.91-4.03-.67-2.4-.67-5.49 0-2.79.76-5.19t2.18-4.16q1.42-1.77 3.41-2.76 1.98-.99 4.45-.99 2.11 0 3.61.66 1.49.66 2.67 1.79zm25.3 29.92v-4.24q-2.62.12-4.41.45-1.78.33-2.86.85-1.08.51-1.55 1.2-.46.68-.46 1.49 0 1.59.94 2.28.95.69 2.46.69 1.87 0 3.23-.68 1.36-.67 2.65-2.04m-12.78-13.21-1.08-1.93q4.33-3.97 10.43-3.97 2.21 0 3.95.72t2.94 2.01 1.82 3.07q.63 1.79.63 3.92v15.88h-2.74q-.86 0-1.33-.26-.46-.25-.73-1.04l-.54-1.81q-.96.86-1.86 1.51-.91.64-1.89 1.09-.98.44-2.1.67-1.11.23-2.46.23-1.59 0-2.94-.43-1.34-.43-2.32-1.28-.98-.86-1.52-2.13-.54-1.28-.54-2.97 0-.95.32-1.9.31-.94 1.04-1.8.72-.86 1.87-1.62t2.83-1.32 3.91-.92q2.23-.35 5.09-.43v-1.47q0-2.52-1.07-3.73-1.08-1.21-3.11-1.21-1.47 0-2.44.34t-1.71.77q-.73.43-1.33.77t-1.34.34q-.63 0-1.07-.33t-.71-.77m41.08-2.72-1.37 2.18q-.24.39-.51.55t-.69.16q-.44 0-.94-.24-.51-.25-1.17-.55-.66-.31-1.5-.55-.85-.25-2-.25-1.79 0-2.81.76-1.01.76-1.01 1.98 0 .81.52 1.36.53.56 1.4.97.87.42 1.97.75 1.11.33 2.24.72 1.14.39 2.25.9 1.1.5 1.97 1.27t1.4 1.85q.52 1.08.52 2.6 0 1.81-.65 3.34t-1.92 2.65q-1.27 1.11-3.15 1.74-1.87.62-4.32.62-1.3 0-2.54-.23t-2.38-.65q-1.13-.42-2.1-.98t-1.71-1.23l1.4-2.3q.27-.41.64-.63.37-.23.93-.23t1.06.32q.51.32 1.17.69t1.55.68q.9.32 2.27.32 1.08 0 1.85-.25.77-.26 1.27-.68.51-.41.74-.97.23-.55.23-1.13 0-.89-.52-1.45-.53-.56-1.4-.98t-1.99-.75q-1.11-.33-2.27-.72-1.17-.39-2.28-.92-1.12-.53-1.99-1.33-.87-.81-1.39-1.99-.53-1.17-.53-2.84 0-1.54.61-2.94t1.8-2.44 2.97-1.66q1.77-.63 4.1-.63 2.6 0 4.73.86t3.55 2.25m22.89-2.72v2.5q0 .64-.23 1.25-.22.61-.58 1.01l-11.93 15.72h12.37v4.66h-19.41v-2.52q0-.42.2-1 .2-.57.59-1.09l12.05-15.9h-12.13v-4.63zm9.23 9.68h11.42q0-1.18-.33-2.22t-.99-1.82q-.67-.79-1.68-1.24-1.02-.45-2.37-.45-2.62 0-4.13 1.49-1.5 1.5-1.92 4.24m15.44 3.65h-15.56q.15 1.94.69 3.35.53 1.4 1.42 2.32.88.92 2.09 1.37 1.21.46 2.68.46t2.54-.35q1.07-.34 1.86-.75.8-.42 1.4-.76.6-.35 1.16-.35.76 0 1.13.57l1.74 2.2q-1.01 1.18-2.26 1.97-1.25.8-2.61 1.28-1.35.48-2.76.67-1.41.2-2.74.2-2.62 0-4.87-.87t-3.92-2.57q-1.67-1.71-2.62-4.22-.96-2.51-.96-5.82 0-2.57.84-4.84.83-2.26 2.38-3.94 1.56-1.68 3.8-2.66t5.06-.98q2.38 0 4.39.76t3.45 2.22q1.45 1.46 2.27 3.57.82 2.12.82 4.84 0 1.38-.3 1.85-.29.48-1.12.48m11.19-12.22.42 1.98q.76-.76 1.6-1.41.85-.65 1.79-1.1.95-.45 2.02-.71 1.08-.26 2.36-.26 2.05 0 3.65.7 1.59.7 2.65 1.96 1.07 1.26 1.62 3.01t.55 3.86v16h-6.05v-16q0-2.3-1.05-3.56-1.06-1.26-3.21-1.26-1.57 0-2.94.71t-2.6 1.93v18.18h-6.05v-25.14h3.7q1.18 0 1.54 1.11m22.59-1.11h6.08v25.14h-6.08zm6.91-7.32q0 .78-.32 1.47-.32.68-.84 1.2-.53.51-1.24.82-.71.3-1.52.3-.78 0-1.48-.3-.7-.31-1.21-.82-.52-.52-.82-1.2-.31-.69-.31-1.47 0-.81.31-1.52.3-.71.82-1.23.51-.51 1.21-.82.7-.3 1.48-.3.81 0 1.52.3.71.31 1.24.82.52.52.84 1.23t.32 1.52m10.12 17h11.42q0-1.18-.33-2.22t-1-1.82q-.66-.79-1.67-1.24-1.02-.45-2.37-.45-2.62 0-4.13 1.49-1.5 1.5-1.92 4.24m15.43 3.65h-15.55q.14 1.94.68 3.35.54 1.4 1.42 2.32.89.92 2.1 1.37 1.21.46 2.68.46t2.54-.35q1.06-.34 1.86-.75.8-.42 1.4-.76.6-.35 1.16-.35.76 0 1.13.57l1.74 2.2q-1.01 1.18-2.26 1.97-1.25.8-2.61 1.28t-2.77.67q-1.4.2-2.73.2-2.62 0-4.87-.87-2.26-.87-3.92-2.57-1.67-1.71-2.62-4.22-.96-2.51-.96-5.82 0-2.57.83-4.84.84-2.26 2.39-3.94 1.56-1.68 3.8-2.66t5.06-.98q2.38 0 4.38.76 2.01.76 3.46 2.22 1.44 1.46 2.26 3.57.83 2.12.83 4.84 0 1.38-.3 1.85-.29.48-1.13.48m26.24 12.2q-3.28 0-5.03-1.85t-1.75-5.11v-14.03h-2.57q-.49 0-.84-.32-.34-.32-.34-.96v-2.4l4.04-.66 1.28-6.86q.12-.49.46-.76t.88-.27h3.14v7.91h6.71v4.32h-6.71v13.62q0 1.17.57 1.83.58.67 1.59.67.56 0 .94-.14.38-.13.66-.28t.5-.28q.22-.14.44-.14.27 0 .44.14.18.13.37.4l1.81 2.94q-1.32 1.11-3.03 1.67-1.72.56-3.56.56m23.13-6.88v-4.24q-2.62.12-4.41.45t-2.86.85q-1.08.51-1.55 1.2-.46.68-.46 1.49 0 1.59.94 2.28t2.46.69q1.86 0 3.22-.68 1.36-.67 2.66-2.04m-12.79-13.21-1.07-1.93q4.33-3.97 10.43-3.97 2.21 0 3.95.72t2.94 2.01 1.82 3.07q.63 1.79.63 3.92v15.88h-2.75q-.85 0-1.32-.26-.47-.25-.74-1.04l-.53-1.81q-.96.86-1.87 1.51-.9.64-1.88 1.09-.98.44-2.1.67-1.11.23-2.46.23-1.59 0-2.94-.43t-2.33-1.28q-.98-.86-1.52-2.13-.54-1.28-.54-2.97 0-.95.32-1.9.32-.94 1.04-1.8.73-.86 1.88-1.62t2.83-1.32 3.91-.92q2.23-.35 5.09-.43v-1.47q0-2.52-1.08-3.73-1.07-1.21-3.11-1.21-1.47 0-2.44.34-.96.34-1.7.77-.73.43-1.33.77t-1.34.34q-.64 0-1.08-.33t-.71-.77m29.72-3.92.37 2.84q1.18-2.25 2.79-3.54 1.62-1.28 3.82-1.28 1.74 0 2.8.76l-.39 4.53q-.13.44-.36.62-.23.19-.62.19-.37 0-1.1-.12-.72-.13-1.4-.13-1.01 0-1.79.3-.79.29-1.41.84-.63.55-1.1 1.34-.48.78-.9 1.79v15.48h-6.05v-25.14h3.55q.93 0 1.3.33t.49 1.19m26.22 17.13v-4.24q-2.62.12-4.41.45t-2.87.85q-1.08.51-1.54 1.2-.47.68-.47 1.49 0 1.59.94 2.28.95.69 2.47.69 1.86 0 3.22-.68 1.36-.67 2.66-2.04m-12.79-13.21-1.08-1.93q4.34-3.97 10.44-3.97 2.2 0 3.94.72t2.94 2.01 1.83 3.07q.62 1.79.62 3.92v15.88h-2.74q-.86 0-1.33-.26-.46-.25-.73-1.04l-.54-1.81q-.96.86-1.86 1.51-.91.64-1.89 1.09-.98.44-2.09.67-1.12.23-2.47.23-1.59 0-2.94-.43-1.34-.43-2.32-1.28-.98-.86-1.52-2.13-.54-1.28-.54-2.97 0-.95.32-1.9.32-.94 1.04-1.8t1.87-1.62 2.83-1.32 3.91-.92q2.23-.35 5.1-.43v-1.47q0-2.52-1.08-3.73t-3.11-1.21q-1.47 0-2.44.34t-1.7.77q-.74.43-1.34.77t-1.33.34q-.64 0-1.08-.33t-.71-.77m41.08-2.72-1.37 2.18q-.24.39-.51.55t-.69.16q-.44 0-.94-.24-.5-.25-1.17-.55-.66-.31-1.5-.55-.85-.25-2-.25-1.79 0-2.8.76-1.02.76-1.02 1.98 0 .81.53 1.36.52.56 1.39.97.87.42 1.97.75 1.11.33 2.25.72t2.24.9q1.1.5 1.97 1.27t1.4 1.85q.52 1.08.52 2.6 0 1.81-.65 3.34-.64 1.53-1.92 2.65-1.27 1.11-3.15 1.74-1.87.62-4.32.62-1.3 0-2.54-.23-1.23-.23-2.37-.65t-2.11-.98-1.7-1.23l1.39-2.3q.27-.41.64-.63.37-.23.93-.23t1.07.32q.5.32 1.16.69t1.56.68q.89.32 2.26.32 1.08 0 1.85-.25.77-.26 1.28-.68.5-.41.73-.97.23-.55.23-1.13 0-.89-.52-1.45-.53-.56-1.4-.98t-1.98-.75q-1.12-.33-2.28-.72-1.17-.39-2.28-.92-1.12-.53-1.99-1.33-.86-.81-1.39-1.99-.53-1.17-.53-2.84 0-1.54.61-2.94.62-1.4 1.8-2.44 1.19-1.04 2.97-1.66 1.78-.63 4.1-.63 2.6 0 4.73.86t3.55 2.25m20.44-2.72h6.05v25.14h-3.7q-1.2 0-1.52-1.1l-.42-2.01q-1.54 1.57-3.4 2.53-1.86.97-4.39.97-2.06 0-3.64-.7-1.58-.69-2.65-1.97-1.08-1.27-1.63-3.02-.55-1.76-.55-3.86v-15.98h6.05v15.98q0 2.3 1.06 3.56 1.07 1.26 3.2 1.26 1.57 0 2.94-.69 1.37-.7 2.6-1.93z"/></svg>